<svg xmlns="http://www.w3.org/2000/svg" viewBox="0 0 900 420" width="900" height="420">
  <defs>
    <radialGradient id="kg-query-glow" cx="50%" cy="50%" r="50%">
      <stop offset="0%" stop-color="#00ADD8" stop-opacity="0.3"/>
      <stop offset="100%" stop-color="#00ADD8" stop-opacity="0"/>
    </radialGradient>
  </defs>

  <!-- Background -->
  <rect width="900" height="420" fill="#0d1117"/>

  <!-- Grid -->
  <line x1="0" y1="140" x2="900" y2="140" stroke="#f0f6fc" stroke-opacity="0.05" stroke-width="1"/>
  <line x1="0" y1="280" x2="900" y2="280" stroke="#f0f6fc" stroke-opacity="0.05" stroke-width="1"/>
  <line x1="225" y1="0" x2="225" y2="420" stroke="#f0f6fc" stroke-opacity="0.05" stroke-width="1"/>
  <line x1="450" y1="0" x2="450" y2="420" stroke="#f0f6fc" stroke-opacity="0.05" stroke-width="1"/>
  <line x1="675" y1="0" x2="675" y2="420" stroke="#f0f6fc" stroke-opacity="0.05" stroke-width="1"/>

  <!-- Title -->
  <text x="450" y="32" font-family="system-ui,-apple-system,Arial,sans-serif" font-size="11" fill="#8b949e" text-anchor="middle" letter-spacing="2">KNOWLEDGE GRAPH — MEMORY RELATIONSHIPS</text>

  <!-- Glow behind query node -->
  <circle cx="450" cy="210" r="70" fill="url(#kg-query-glow)"/>

  <!-- Edge: query -> auth-decision -->
  <line x1="390" y1="175" x2="268.5" y2="132.9" stroke="#00ADD8" stroke-width="2"/>
  <polygon points="260.0,130.0 270.1,128.2 266.9,137.7" fill="#00ADD8"/>
  <!-- Edge label -->
  <rect x="275" y="138" width="105" height="18" rx="3" fill="#0d1117"/>
  <text x="327" y="150" font-family="'Courier New',monospace" font-size="10" fill="#00ADD8" text-anchor="middle">same_project</text>

  <!-- Edge: query -> expiry-bug -->
  <line x1="400" y1="245" x2="278.3" y2="296.5" stroke="#00ADD8" stroke-width="2"/>
  <polygon points="270.0,300.0 276.3,291.9 280.2,301.1" fill="#00ADD8"/>
  <rect x="270" y="260" width="110" height="18" rx="3" fill="#0d1117"/>
  <text x="325" y="272" font-family="'Courier New',monospace" font-size="10" fill="#00ADD8" text-anchor="middle">causes</text>

  <!-- Edge: query -> test-pattern -->
  <line x1="510" y1="180" x2="621.7" y2="133.5" stroke="#00ADD8" stroke-width="2"/>
  <polygon points="630.0,130.0 623.6,138.1 619.8,128.8" fill="#00ADD8"/>
  <rect x="535" y="138" width="95" height="18" rx="3" fill="#0d1117"/>
  <text x="582" y="150" font-family="'Courier New',monospace" font-size="10" fill="#00ADD8" text-anchor="middle">supports</text>

  <!-- Edge: query -> library-choice -->
  <line x1="505" y1="245" x2="626.6" y2="291.8" stroke="#00ADD8" stroke-width="2"/>
  <polygon points="635.0,295.0 624.8,296.4 628.4,287.1" fill="#00ADD8"/>
  <rect x="540" y="258" width="100" height="18" rx="3" fill="#0d1117"/>
  <text x="590" y="270" font-family="'Courier New',monospace" font-size="10" fill="#00ADD8" text-anchor="middle">depends_on</text>

  <!-- Edge: auth-decision -> old-decision (contradicts) -->
  <line x1="185" y1="115" x2="133.0" y2="261.5" stroke="#bc8cff" stroke-width="1.5" stroke-dasharray="5,3"/>
  <polygon points="130.0,270.0 128.3,259.8 137.7,263.2" fill="#bc8cff"/>
  <rect x="90" y="175" width="95" height="18" rx="3" fill="#0d1117"/>
  <text x="137" y="187" font-family="'Courier New',monospace" font-size="10" fill="#bc8cff" text-anchor="middle">contradicts</text>

  <!-- Edge: test-pattern -> expiry-bug -->
  <line x1="660" y1="155" x2="318.4" y2="291.7" stroke="#bc8cff" stroke-width="1.5" stroke-dasharray="5,3"/>
  <polygon points="310.0,295.0 316.5,287.0 320.2,296.3" fill="#bc8cff"/>
  <rect x="450" y="210" width="90" height="16" rx="3" fill="#0d1117"/>
  <text x="495" y="222" font-family="'Courier New',monospace" font-size="10" fill="#bc8cff" text-anchor="middle">followed_by</text>

  <!-- Central query node -->
  <circle cx="450" cy="210" r="45" fill="#161b22" stroke="#00ADD8" stroke-width="2.5"/>
  <text x="450" y="205" font-family="system-ui,-apple-system,Arial,sans-serif" font-size="12" font-weight="700" fill="#00ADD8" text-anchor="middle">QUERY</text>
  <text x="450" y="222" font-family="system-ui,-apple-system,Arial,sans-serif" font-size="10" fill="#8b949e" text-anchor="middle">memory_recall</text>

  <!-- Node: auth-decision -->
  <circle cx="210" cy="110" r="40" fill="#161b22" stroke="#21262d" stroke-width="1.5"/>
  <text x="210" y="105" font-family="system-ui,-apple-system,Arial,sans-serif" font-size="10" fill="#f0f6fc" text-anchor="middle">auth</text>
  <text x="210" y="120" font-family="system-ui,-apple-system,Arial,sans-serif" font-size="10" fill="#f0f6fc" text-anchor="middle">decision</text>

  <!-- Node: expiry-bug -->
  <circle cx="230" cy="315" r="40" fill="#161b22" stroke="#21262d" stroke-width="1.5"/>
  <text x="230" y="310" font-family="system-ui,-apple-system,Arial,sans-serif" font-size="10" fill="#f0f6fc" text-anchor="middle">expiry</text>
  <text x="230" y="325" font-family="system-ui,-apple-system,Arial,sans-serif" font-size="10" fill="#f0f6fc" text-anchor="middle">bug</text>

  <!-- Node: test-pattern -->
  <circle cx="680" cy="115" r="40" fill="#161b22" stroke="#21262d" stroke-width="1.5"/>
  <text x="680" y="110" font-family="system-ui,-apple-system,Arial,sans-serif" font-size="10" fill="#f0f6fc" text-anchor="middle">test</text>
  <text x="680" y="125" font-family="system-ui,-apple-system,Arial,sans-serif" font-size="10" fill="#f0f6fc" text-anchor="middle">pattern</text>

  <!-- Node: library-choice -->
  <circle cx="680" cy="310" r="40" fill="#161b22" stroke="#21262d" stroke-width="1.5"/>
  <text x="680" y="305" font-family="system-ui,-apple-system,Arial,sans-serif" font-size="10" fill="#f0f6fc" text-anchor="middle">library</text>
  <text x="680" y="320" font-family="system-ui,-apple-system,Arial,sans-serif" font-size="10" fill="#f0f6fc" text-anchor="middle">choice</text>

  <!-- Node: old-decision -->
  <circle cx="108" cy="295" r="35" fill="#161b22" stroke="#21262d" stroke-width="1" stroke-dasharray="4,3"/>
  <text x="108" y="290" font-family="system-ui,-apple-system,Arial,sans-serif" font-size="9" fill="#8b949e" text-anchor="middle">old</text>
  <text x="108" y="303" font-family="system-ui,-apple-system,Arial,sans-serif" font-size="9" fill="#8b949e" text-anchor="middle">decision</text>
  <text x="108" y="316" font-family="system-ui,-apple-system,Arial,sans-serif" font-size="9" fill="#8b949e" text-anchor="middle">(stale)</text>

  <!-- Legend -->
  <line x1="340" y1="380" x2="370" y2="380" stroke="#00ADD8" stroke-width="2"/>
  <text x="378" y="384" font-family="system-ui,-apple-system,Arial,sans-serif" font-size="11" fill="#8b949e">Active traversal</text>
  <line x1="490" y1="380" x2="520" y2="380" stroke="#bc8cff" stroke-width="1.5" stroke-dasharray="5,3"/>
  <text x="528" y="384" font-family="system-ui,-apple-system,Arial,sans-serif" font-size="11" fill="#8b949e">Graph edges</text>
</svg>
