<svg xmlns="http://www.w3.org/2000/svg" viewBox="0 0 900 420" width="900" height="420">
  <defs>
    <linearGradient id="rw-lane-grad" x1="0%" y1="0%" x2="100%" y2="0%">
      <stop offset="0%" stop-color="#161b22"/>
      <stop offset="100%" stop-color="#0d1117"/>
    </linearGradient>
    <linearGradient id="rw-active-grad" x1="0%" y1="0%" x2="100%" y2="0%">
      <stop offset="0%" stop-color="#00ADD8" stop-opacity="0.15"/>
      <stop offset="100%" stop-color="#00ADD8" stop-opacity="0.04"/>
    </linearGradient>
    <marker id="rw-arrow" markerWidth="7" markerHeight="7" refX="5" refY="3" orient="auto">
      <path d="M0,0 L0,6 L7,3 z" fill="#00ADD8"/>
    </marker>
    <marker id="rw-arrow-muted" markerWidth="7" markerHeight="7" refX="5" refY="3" orient="auto">
      <path d="M0,0 L0,6 L7,3 z" fill="#21262d"/>
    </marker>
  </defs>

  <!-- Background -->
  <rect width="900" height="420" fill="#0d1117"/>

  <!-- Grid -->
  <line x1="240" y1="0" x2="240" y2="420" stroke="#f0f6fc" stroke-opacity="0.06" stroke-width="1"/>
  <line x1="480" y1="0" x2="480" y2="420" stroke="#f0f6fc" stroke-opacity="0.04" stroke-width="1"/>
  <line x1="720" y1="0" x2="720" y2="420" stroke="#f0f6fc" stroke-opacity="0.04" stroke-width="1"/>

  <!-- Title -->
  <text x="450" y="28" font-family="system-ui,-apple-system,Arial,sans-serif" font-size="11" fill="#8b949e" text-anchor="middle" letter-spacing="2">BACKGROUND WORKERS — SWIM LANES</text>

  <!-- Lane 1: Summarize Worker (active) -->
  <rect x="20" y="48" width="860" height="75" rx="8" fill="url(#rw-active-grad)" stroke="#00ADD8" stroke-width="1.5"/>
  <!-- Lane label -->
  <rect x="20" y="48" width="190" height="75" rx="8" fill="#161b22"/>
  <text x="115" y="78" font-family="system-ui,-apple-system,Arial,sans-serif" font-size="11" font-weight="700" fill="#00ADD8" text-anchor="middle">Summarize Worker</text>
  <text x="115" y="96" font-family="'Courier New',monospace" font-size="10" fill="#8b949e" text-anchor="middle">tick: 60s</text>
  <!-- Trigger -->
  <rect x="230" y="63" width="140" height="40" rx="6" fill="#21262d"/>
  <text x="300" y="80" font-family="system-ui,-apple-system,Arial,sans-serif" font-size="11" fill="#f0f6fc" text-anchor="middle">new memory</text>
  <text x="300" y="96" font-family="'Courier New',monospace" font-size="10" fill="#8b949e" text-anchor="middle">no summary yet</text>
  <!-- Arrow -->
  <line x1="370" y1="83" x2="415" y2="83" stroke="#00ADD8" stroke-width="1.5" marker-end="url(#rw-arrow)"/>
  <!-- Process -->
  <rect x="415" y="63" width="160" height="40" rx="6" fill="#21262d"/>
  <text x="495" y="80" font-family="system-ui,-apple-system,Arial,sans-serif" font-size="11" fill="#f0f6fc" text-anchor="middle">call Ollama</text>
  <text x="495" y="96" font-family="'Courier New',monospace" font-size="10" fill="#8b949e" text-anchor="middle">llama3.2 / Claude</text>
  <!-- Arrow -->
  <line x1="575" y1="83" x2="620" y2="83" stroke="#00ADD8" stroke-width="1.5" marker-end="url(#rw-arrow)"/>
  <!-- Output -->
  <rect x="620" y="63" width="230" height="40" rx="6" fill="#21262d"/>
  <text x="735" y="80" font-family="system-ui,-apple-system,Arial,sans-serif" font-size="11" fill="#f0f6fc" text-anchor="middle">write generated_summary</text>
  <text x="735" y="96" font-family="'Courier New',monospace" font-size="10" fill="#00ADD8" text-anchor="middle">ACTIVE</text>

  <!-- Lane 2: Entity Worker -->
  <rect x="20" y="137" width="860" height="75" rx="8" fill="url(#rw-lane-grad)" stroke="#21262d" stroke-width="1"/>
  <rect x="20" y="137" width="190" height="75" rx="8" fill="#161b22"/>
  <text x="115" y="167" font-family="system-ui,-apple-system,Arial,sans-serif" font-size="11" font-weight="700" fill="#bc8cff" text-anchor="middle">Entity Worker</text>
  <text x="115" y="185" font-family="'Courier New',monospace" font-size="10" fill="#8b949e" text-anchor="middle">tick: 30s</text>
  <!-- Process -->
  <rect x="230" y="152" width="140" height="40" rx="6" fill="#21262d"/>
  <text x="300" y="169" font-family="system-ui,-apple-system,Arial,sans-serif" font-size="11" fill="#f0f6fc" text-anchor="middle">extract entities</text>
  <text x="300" y="185" font-family="'Courier New',monospace" font-size="10" fill="#8b949e" text-anchor="middle">from content</text>
  <line x1="370" y1="172" x2="415" y2="172" stroke="#21262d" stroke-width="1.5" marker-end="url(#rw-arrow-muted)"/>
  <rect x="415" y="152" width="160" height="40" rx="6" fill="#21262d"/>
  <text x="495" y="169" font-family="system-ui,-apple-system,Arial,sans-serif" font-size="11" fill="#f0f6fc" text-anchor="middle">NER / parse</text>
  <text x="495" y="185" font-family="'Courier New',monospace" font-size="10" fill="#8b949e" text-anchor="middle">build entity list</text>
  <line x1="575" y1="172" x2="620" y2="172" stroke="#21262d" stroke-width="1.5" marker-end="url(#rw-arrow-muted)"/>
  <rect x="620" y="152" width="230" height="40" rx="6" fill="#21262d"/>
  <text x="735" y="169" font-family="system-ui,-apple-system,Arial,sans-serif" font-size="11" fill="#f0f6fc" text-anchor="middle">write graph edges</text>
  <text x="735" y="185" font-family="'Courier New',monospace" font-size="10" fill="#8b949e" text-anchor="middle">idle</text>

  <!-- Lane 3: Consolidation Worker -->
  <rect x="20" y="226" width="860" height="75" rx="8" fill="url(#rw-lane-grad)" stroke="#21262d" stroke-width="1"/>
  <rect x="20" y="226" width="190" height="75" rx="8" fill="#161b22"/>
  <text x="115" y="256" font-family="system-ui,-apple-system,Arial,sans-serif" font-size="11" font-weight="700" fill="#e3b341" text-anchor="middle">Consolidation Worker</text>
  <text x="115" y="274" font-family="'Courier New',monospace" font-size="10" fill="#8b949e" text-anchor="middle">tick: 8h (decay)</text>
  <rect x="230" y="241" width="140" height="40" rx="6" fill="#21262d"/>
  <text x="300" y="258" font-family="system-ui,-apple-system,Arial,sans-serif" font-size="11" fill="#f0f6fc" text-anchor="middle">periodic scan</text>
  <text x="300" y="274" font-family="'Courier New',monospace" font-size="10" fill="#8b949e" text-anchor="middle">dedup check</text>
  <line x1="370" y1="261" x2="415" y2="261" stroke="#21262d" stroke-width="1.5" marker-end="url(#rw-arrow-muted)"/>
  <rect x="415" y="241" width="160" height="40" rx="6" fill="#21262d"/>
  <text x="495" y="258" font-family="system-ui,-apple-system,Arial,sans-serif" font-size="11" fill="#f0f6fc" text-anchor="middle">near-dup detect</text>
  <text x="495" y="274" font-family="'Courier New',monospace" font-size="10" fill="#8b949e" text-anchor="middle">cosine threshold</text>
  <line x1="575" y1="261" x2="620" y2="261" stroke="#21262d" stroke-width="1.5" marker-end="url(#rw-arrow-muted)"/>
  <rect x="620" y="241" width="230" height="40" rx="6" fill="#21262d"/>
  <text x="735" y="258" font-family="system-ui,-apple-system,Arial,sans-serif" font-size="11" fill="#f0f6fc" text-anchor="middle">merge / apply decay</text>
  <text x="735" y="274" font-family="'Courier New',monospace" font-size="10" fill="#8b949e" text-anchor="middle">idle</text>

  <!-- Lane 4: Retention Worker -->
  <rect x="20" y="315" width="860" height="75" rx="8" fill="url(#rw-lane-grad)" stroke="#21262d" stroke-width="1"/>
  <rect x="20" y="315" width="190" height="75" rx="8" fill="#161b22"/>
  <text x="115" y="345" font-family="system-ui,-apple-system,Arial,sans-serif" font-size="11" font-weight="700" fill="#3fb950" text-anchor="middle">Retention Worker</text>
  <text x="115" y="363" font-family="'Courier New',monospace" font-size="10" fill="#8b949e" text-anchor="middle">tick: daily</text>
  <rect x="230" y="330" width="140" height="40" rx="6" fill="#21262d"/>
  <text x="300" y="347" font-family="system-ui,-apple-system,Arial,sans-serif" font-size="11" fill="#f0f6fc" text-anchor="middle">find old events</text>
  <text x="300" y="363" font-family="'Courier New',monospace" font-size="10" fill="#8b949e" text-anchor="middle">age &gt; 90 days</text>
  <line x1="370" y1="350" x2="415" y2="350" stroke="#21262d" stroke-width="1.5" marker-end="url(#rw-arrow-muted)"/>
  <rect x="415" y="330" width="160" height="40" rx="6" fill="#21262d"/>
  <text x="495" y="347" font-family="system-ui,-apple-system,Arial,sans-serif" font-size="11" fill="#f0f6fc" text-anchor="middle">DELETE rows</text>
  <text x="495" y="363" font-family="'Courier New',monospace" font-size="10" fill="#8b949e" text-anchor="middle">retrieval_events</text>
  <line x1="575" y1="350" x2="620" y2="350" stroke="#21262d" stroke-width="1.5" marker-end="url(#rw-arrow-muted)"/>
  <rect x="620" y="330" width="230" height="40" rx="6" fill="#21262d"/>
  <text x="735" y="347" font-family="system-ui,-apple-system,Arial,sans-serif" font-size="11" fill="#f0f6fc" text-anchor="middle">log pruned count</text>
  <text x="735" y="363" font-family="'Courier New',monospace" font-size="10" fill="#8b949e" text-anchor="middle">idle</text>

  <!-- Column headers -->
  <text x="300" y="42" font-family="system-ui,-apple-system,Arial,sans-serif" font-size="10" fill="#8b949e" text-anchor="middle" letter-spacing="1">TRIGGER</text>
  <text x="495" y="42" font-family="system-ui,-apple-system,Arial,sans-serif" font-size="10" fill="#8b949e" text-anchor="middle" letter-spacing="1">PROCESS</text>
  <text x="735" y="42" font-family="system-ui,-apple-system,Arial,sans-serif" font-size="10" fill="#8b949e" text-anchor="middle" letter-spacing="1">OUTPUT / STATE</text>
</svg>
